<?xml version="1.0" encoding="UTF-8"?>
<svg id="Layer_1" data-name="Layer 1" xmlns="http://www.w3.org/2000/svg" viewBox="0 0 197.9 196">
  <defs>
    <style>
      .cls-1 {
        fill: #003c82;
      }

      .cls-2 {
        fill: #999;
      }

      .cls-3 {
        fill: #fff;
        stroke: #003c82;
        stroke-miterlimit: 10;
        stroke-width: 14px;
      }
    </style>
  </defs>
  <path class="cls-3" d="M190.9,176.79c0,6.75-5.53,12.21-12.34,12.21H19.34c-6.82,0-12.34-5.47-12.34-12.21V19.21c0-6.75,5.53-12.21,12.34-12.21h159.21c6.82,0,12.34,5.47,12.34,12.21v157.57Z"/>
  <g>
    <polygon class="cls-1" points="22.04 74.51 60.39 93.18 51.14 43.32 22.04 74.51"/>
    <rect class="cls-1" x="54.96" y="55.33" width="60.07" height="14.44" transform="translate(179.99 108.54) rotate(169.48)"/>
  </g>
  <g>
    <polygon class="cls-1" points="32.04 127.51 70.39 146.18 61.14 96.32 32.04 127.51"/>
    <rect class="cls-1" x="64.96" y="108.33" width="60.07" height="14.44" transform="translate(209.49 211.82) rotate(169.48)"/>
  </g>
  <g>
    <polygon class="cls-2" points="175.85 127.99 137.49 109.32 146.75 159.18 175.85 127.99"/>
    <rect class="cls-2" x="82.85" y="132.74" width="60.07" height="14.44" transform="translate(-23.65 22.96) rotate(-10.52)"/>
  </g>
  <g>
    <polygon class="cls-2" points="165.85 74.99 127.49 56.32 136.75 106.18 165.85 74.99"/>
    <rect class="cls-2" x="72.85" y="79.74" width="60.07" height="14.44" transform="translate(-14.14 20.24) rotate(-10.52)"/>
  </g>
</svg>